<svg width="514" height="514" viewBox="0 0 514 514" fill="none" xmlns="http://www.w3.org/2000/svg">
<g clip-path="url(#clip0_3332_8095)">
<path fill-rule="evenodd" clip-rule="evenodd" d="M55.541 168.845C67.9201 151.487 87.3132 141.345 107.862 138.536L109.779 138.29C113.977 137.781 118.209 137.46 122.308 137.119C124.559 135.471 126.564 133.426 128.738 131.151C130.916 128.871 133.294 126.329 136.045 124.197L136.661 123.726C149.637 113.907 165.531 109.294 181.834 109.775L183.091 109.821C186.021 109.946 188.93 110.193 191.753 110.425C195.01 110.693 198.166 110.942 201.309 111L202.168 111.01C206.492 111.031 211.315 110.645 216.387 110.386C221.323 110.134 226.471 110.006 231.024 110.658L231.926 110.799L232.661 110.934C234.43 111.295 236.902 112.099 238.529 114.67L238.707 114.962C240.744 118.49 240.143 122.13 239.353 124.727C238.586 127.246 237.463 129.689 236.574 131.785C235.7 133.846 234.992 135.697 234.619 137.571L234.55 137.945C233.963 141.316 234.061 145.04 234.41 149.053C234.696 152.346 235.206 156.256 235.487 159.777L235.591 161.26C236.066 169.076 235.267 177.039 233.693 184.501L233.367 185.985C230.511 198.588 224.031 211.895 218.814 224.61C213.952 236.459 210.099 247.949 210.111 259.075C210.175 259.078 210.232 259.08 210.277 259.082L210.785 259.104L211.42 259.147C211.631 259.163 211.842 259.179 212.051 259.198L213.002 259.291L213.46 259.347L214.115 259.429L215.075 259.571C216.028 259.724 216.968 259.908 217.892 260.118L218.432 260.243L218.9 260.362L219.49 260.514L220.004 260.657L220.554 260.812L221.096 260.978L221.563 261.126L222.171 261.327L222.582 261.467L223.128 261.663L223.632 261.85L224.114 262.036L224.614 262.234L225.029 262.405L225.606 262.65L226.574 263.085L227.091 263.332L227.53 263.542L228.04 263.798L228.509 264.039L228.928 264.261L229.445 264.545L229.959 264.832L230.333 265.05L230.884 265.377L231.247 265.597L231.758 265.917L232.166 266.179L232.655 266.502L233.063 266.78L233.506 267.084L233.939 267.393L234.402 267.729L234.766 268.001L235.239 268.361L235.61 268.653C235.612 268.654 235.615 268.657 235.616 268.659C239.486 265.086 243.548 261.464 247.811 257.783L249.977 255.922L249.981 255.918L251.689 254.465L251.697 254.46L251.945 254.248L252.014 254.197L252.209 254.05L252.213 254.046L255.118 251.842C261.086 247.277 266.59 242.841 271.667 238.504C271.638 238.434 271.607 238.361 271.577 238.287L271.358 237.741L271.155 237.218L270.986 236.765L270.79 236.227L270.6 235.677L270.44 235.207L270.258 234.64L270.117 234.192L269.959 233.651L269.799 233.097L269.67 232.622L269.519 232.054L269.396 231.55L269.264 231.002L269.033 229.941L268.881 229.157L268.862 229.061C268.854 229.019 268.842 228.957 268.83 228.89L268.71 228.187L268.64 227.771L268.531 227.02L268.513 226.899C268.505 226.847 268.494 226.772 268.483 226.691L268.39 225.938L268.35 225.579L268.266 224.718C268.259 224.653 268.251 224.564 268.243 224.47L268.198 223.854L268.162 223.348L268.125 222.594L268.111 222.293L268.108 222.211L268.108 222.201L268.107 222.19C268.099 221.94 268.095 221.676 268.091 221.493L268.087 221.343C268.086 221.281 268.083 221.197 268.082 221.107L268.083 220.03C268.083 220.022 268.082 220.013 268.083 220.005L268.103 219.173L268.105 219.062C268.106 219.012 268.108 218.933 268.111 218.849L268.153 218.029L268.195 217.321C268.211 217.081 268.231 216.838 268.252 216.593L268.353 215.563C268.391 215.223 268.431 214.887 268.475 214.554L268.482 214.493C268.486 214.46 268.493 214.399 268.502 214.332L268.669 213.222L268.77 212.645L268.859 212.133L269.013 211.362L269.035 211.247C269.045 211.197 269.06 211.121 269.077 211.039L269.322 209.958L269.542 209.083C269.552 209.044 269.565 208.989 269.581 208.93L269.787 208.188L269.821 208.062C269.835 208.011 269.855 207.94 269.877 207.864L270.198 206.813L270.389 206.236L270.537 205.794L270.722 205.281L270.914 204.754L271.075 204.333L271.298 203.764L271.529 203.208L271.697 202.815L271.932 202.28L272.15 201.8L272.356 201.365L272.594 200.868L272.873 200.316L273.063 199.945L273.376 199.361L273.559 199.027L273.856 198.501L274.1 198.08L274.353 197.657L274.649 197.176L274.913 196.759L275.194 196.324L275.532 195.818L275.763 195.482L276.128 194.964L276.36 194.64L276.742 194.127L276.992 193.798L277.324 193.373L277.648 192.966L277.963 192.584L278.326 192.152L278.611 191.822L278.995 191.389L279.324 191.025L279.67 190.651L280.053 190.253L280.367 189.93L280.795 189.502L281.081 189.222L281.512 188.814C281.625 188.708 281.746 188.595 281.87 188.482L282.238 188.151L282.615 187.818L283.04 187.451L283.383 187.164L283.818 186.808L284.176 186.523L284.634 186.168L284.991 185.896L285.392 185.6L285.862 185.262L286.241 184.996L286.671 184.705L287.095 184.422L287.547 184.133L287.948 183.879L288.357 183.63L288.84 183.342L289.296 183.081L289.701 182.852L290.193 182.585L290.623 182.359L291.048 182.142L291.56 181.887L291.942 181.703L292.472 181.456L292.887 181.271L293.397 181.047L293.84 180.863L294.357 180.652L294.802 180.48L295.318 180.285L295.762 180.125L296.293 179.94L296.747 179.79L297.273 179.621L297.693 179.495L298.269 179.324L299.242 179.063L299.711 178.947L300.308 178.804L300.641 178.731L301.32 178.588L301.707 178.512L302.32 178.399L302.903 178.302L303.348 178.231L304.021 178.139L304.377 178.091L305.045 178.016L305.439 177.973L306.139 177.913L306.496 177.884L307.008 177.853L307.601 177.821L308.635 177.787L309.542 177.78C309.842 177.781 310.141 177.786 310.438 177.793L310.825 177.802L311.892 177.851L312.527 177.892C312.738 177.908 312.949 177.924 313.158 177.943L314.108 178.037L314.891 178.132L315.011 178.147C315.063 178.153 315.14 178.162 315.223 178.174L316.18 178.316C316.885 178.43 317.583 178.562 318.273 178.708C325.587 159.74 327.741 138.065 325.736 109.549C325.182 109.433 324.63 109.308 324.081 109.171L323.334 108.979L322.641 108.782L322.276 108.677L321.62 108.475L321.23 108.353L320.632 108.152L320.21 108.008L319.62 107.794L319.183 107.633L318.622 107.415L318.179 107.238L317.437 106.926C317.415 106.917 317.394 106.907 317.352 106.889L317.207 106.827L316.637 106.572L316.166 106.356L315.749 106.157L315.208 105.896L314.742 105.658L314.244 105.402L313.701 105.108C313.621 105.064 313.452 104.975 313.317 104.9L312.764 104.584L312.335 104.336L311.893 104.069L311.455 103.801L311.014 103.522L310.553 103.226L310.088 102.915L309.686 102.643L309.235 102.327L308.766 101.992L308.41 101.729L307.916 101.361L307.507 101.045L307.074 100.704L306.695 100.398L306.226 100.01L305.867 99.7057L305.428 99.3246L304.987 98.9333L304.643 98.6209L304.212 98.2226L303.891 97.9175L303.485 97.5221L303.051 97.0893L302.774 96.8073L302.334 96.3516L302.009 96.0055L301.626 95.5888L301.244 95.1644L300.943 94.8218L300.55 94.3617L300.215 93.9624L299.916 93.5987L299.513 93.094L299.237 92.7421L298.883 92.2803L298.583 91.8783L298.233 91.3981L297.962 91.0194L297.6 90.4996L297.341 90.1157L296.998 89.5984L296.746 89.2088L296.432 88.7104L296.164 88.2743L295.876 87.7923L295.628 87.3678L295.337 86.8589L295.113 86.4573L294.784 85.8418L294.617 85.5272L294.323 84.9508L294.112 84.527L293.866 84.0168L293.63 83.5154L293.402 83.0137L293.201 82.56L292.982 82.0438L292.771 81.5381L292.58 81.063L292.375 80.54L292.188 80.0386L291.999 79.5185L291.816 78.9891L291.648 78.4935L291.469 77.9348L291.315 77.4437L291.185 77.0027L291.005 76.3815L290.727 75.3401L290.604 74.8373L290.472 74.2932L290.34 73.6889L290.242 73.2284L290.118 72.593L290.032 72.147L289.928 71.5381L289.846 71.0551L289.721 70.1852C289.713 70.1334 289.702 70.0577 289.691 69.9767L289.6 69.2338L289.557 68.8587L289.47 67.9813C289.465 67.9281 289.458 67.8544 289.451 67.7767L289.399 67.0787L289.369 66.6353L289.332 65.8806L289.318 65.5717L289.316 65.4995L289.314 65.4761C289.306 65.2503 289.302 65.0032 289.299 64.8446L289.289 64.3932L289.29 63.2746L289.314 62.2922L289.314 62.2877L289.315 62.2772C289.314 62.2806 289.314 62.2854 289.314 62.2877L289.315 62.2853C289.315 62.2853 289.315 62.2799 289.315 62.2772C289.314 62.2679 289.315 62.2536 289.315 62.2386C289.316 62.217 289.317 62.1858 289.318 62.151L289.353 61.4178L289.399 60.657C289.416 60.4002 289.436 60.1404 289.458 59.8784L289.56 58.8491C289.598 58.5093 289.639 58.1721 289.683 57.839L289.691 57.7785C289.695 57.745 289.701 57.6834 289.71 57.6171L289.846 56.704C289.894 56.4038 289.943 56.107 289.995 55.8148L290.066 55.4177L290.282 54.3352L290.422 53.7115L290.527 53.2526L290.756 52.3417C290.764 52.309 290.776 52.2643 290.789 52.2165L290.991 51.4801L291.084 51.15L291.268 50.5458L291.407 50.0933L291.598 49.5187L291.745 49.0845L291.933 48.5532L292.121 48.0401L292.279 47.6274L292.508 47.0457L292.735 46.5015L292.902 46.0996L293.141 45.5659L293.357 45.0839L293.564 44.6494L293.802 44.153L294.08 43.6035L294.27 43.2318L294.584 42.6466L294.765 42.313L295.067 41.7833L295.305 41.3688L295.566 40.9338L295.853 40.4659L296.124 40.0395L296.4 39.6102L296.737 39.11L296.973 38.7618L297.324 38.2656L297.573 37.9188L297.952 37.4112L298.194 37.0909L298.546 36.6394L298.847 36.263L299.185 35.8514L299.525 35.4474L299.824 35.1014L300.201 34.675L300.546 34.2945L300.865 33.951L301.273 33.5232L301.565 33.2251L301.987 32.8041L302.304 32.4947L302.715 32.1048L303.082 31.7637L303.428 31.4509L303.842 31.0855L304.229 30.7519L304.597 30.4433L305.018 30.0995L305.396 29.7975L305.843 29.4505L306.177 29.1988L306.624 28.8695L307.062 28.5542L307.448 28.2836L307.888 27.9835L308.288 27.7183L308.768 27.4083L309.15 27.1675L309.607 26.8902L310.048 26.6285L310.469 26.3846L310.928 26.1284L311.366 25.8892L311.837 25.6416L312.242 25.4321L312.797 25.1584L313.114 25.0076L313.713 24.7262L314.066 24.5686L314.632 24.3222L315.045 24.1495L315.571 23.9353L316.01 23.7644L316.526 23.5703L316.995 23.4026L317.496 23.2267L317.955 23.076L318.485 22.9053L318.925 22.7733L319.453 22.6164L320.429 22.3529L321.026 22.2062L321.483 22.0969L321.862 22.0146L322.523 21.8732L322.975 21.7865L323.526 21.6843L324.017 21.6028L324.591 21.5124L324.937 21.4636L325.623 21.3723L326.033 21.3261L326.679 21.2565L327.318 21.202L327.704 21.171L328.791 21.1068L329.875 21.0719L330.473 21.0682L330.948 21.0671L331.895 21.0847C332.209 21.0945 332.524 21.1079 332.836 21.124L332.927 21.1284C332.967 21.1301 333.028 21.1316 333.094 21.1354L333.595 21.1702L334.042 21.2027L334.918 21.2831L335.135 21.305L335.454 21.3396L335.469 21.3403L335.485 21.3432L336.389 21.4543L336.429 21.4607L336.471 21.4654L337.499 21.6193L337.519 21.6231L337.54 21.6259C337.82 21.6716 338.103 21.7237 338.323 21.7638L339.328 21.9598C339.662 22.0286 339.995 22.1015 340.326 22.1781L340.746 22.274L341.214 22.3923L341.802 22.5435L342.867 22.8439L343.247 22.9598L343.923 23.1714L344.234 23.2739L344.938 23.5126L345.445 23.6961L345.866 23.8495L346.476 24.0869L346.922 24.2612L347.865 24.6591L348.491 24.9352L348.823 25.0862L349.402 25.3607L349.846 25.5733L350.365 25.8349L350.764 26.0394L351.341 26.3472L351.757 26.5735L352.183 26.8128L352.697 27.1106L353.121 27.3602L353.595 27.6494L354.058 27.9397L354.492 28.2181L354.924 28.5021L355.352 28.7906L355.833 29.1239L356.251 29.4225L356.659 29.718L357.135 30.0736L357.545 30.3861L357.923 30.6819L358.396 31.0591L358.696 31.3067L359.188 31.715L359.589 32.0619L359.992 32.4137L360.338 32.7272L360.784 33.1348L361.062 33.3968L361.548 33.8624L361.897 34.2082L362.316 34.6276L362.61 34.9314L363.024 35.3645L363.372 35.7403L363.761 36.1664C363.795 36.2046 363.826 36.2418 363.85 36.2687L363.909 36.3347L364.453 36.957L364.66 37.2013L365.081 37.7029C365.603 38.338 366.109 38.9874 366.598 39.6487L367.083 40.3149L367.194 40.4731L367.677 41.1699C367.778 41.3183 367.88 41.4735 367.956 41.588L367.958 41.5869L368.267 42.0577L368.474 42.3809L368.823 42.9355L369.158 43.4906L369.376 43.8535L369.637 44.3061L369.913 44.7916L370.198 45.312L370.422 45.7311L370.686 46.2382L370.912 46.684L371.146 47.1598L371.389 47.6613L371.605 48.1302L371.835 48.6381L372.021 49.0589L372.265 49.6355L372.462 50.1177L372.658 50.6099L372.873 51.171L373.038 51.6138L373.221 52.1187L373.416 52.6831L373.568 53.1391L373.746 53.702L373.891 54.1659L374.063 54.7485L374.194 55.2057L374.352 55.7997L374.469 56.247L374.618 56.854L374.732 57.3388L374.843 57.8365L374.968 58.4365L375.066 58.9333L375.162 59.4556L375.263 60.0291L375.343 60.5255L375.44 61.1922L375.498 61.5966L375.574 62.2255L375.633 62.7349L375.687 63.2819L375.738 63.8433L375.783 64.4356L375.814 64.902L375.849 65.617L375.869 66.014L375.895 67.1516L375.895 67.6231L375.893 68.3043C375.883 69.0347 375.856 69.7715 375.811 70.5121L375.808 70.5568L375.729 71.6149L375.725 71.6556C374.273 88.4411 363.923 101.794 349.892 107.483C352.265 139.55 350.023 166.197 340.268 190.508L340.34 190.577L340.691 190.922L341.111 191.344L341.334 191.574L341.82 192.082L342.127 192.414L342.553 192.88L342.711 193.059L343.246 193.671C343.271 193.7 343.295 193.728 343.311 193.747L343.349 193.793C343.806 194.328 344.248 194.877 344.68 195.432C353.754 188.544 359.778 177.37 365.128 164.698C368.067 157.736 370.596 150.859 373.474 143.815C376.109 137.363 378.929 131.058 382.274 125.485L382.95 124.38L383.751 123.119C387.677 117.043 392.412 111.226 397.862 106.418L398.428 105.924L399.516 105.005C402.124 102.85 405.155 100.615 407.61 98.6177C410.601 96.1844 413.225 93.7466 415.143 91.0058L415.353 90.6983C416.389 89.1377 417.182 87.3274 418.007 85.2433C418.847 83.1236 419.764 80.5857 420.977 78.2764L421.221 77.8237C422.494 75.5382 424.558 72.9144 428.12 72.1944L428.44 72.1375C431.306 71.6893 433.529 73.1076 434.971 74.2653L435.559 74.7558C439.334 77.9876 442.965 82.4356 446.335 86.7887C449.582 90.9825 452.573 95.0656 455.507 98.4774L456.093 99.1505C458.255 101.602 460.557 103.934 462.94 106.333C465.006 108.413 467.14 110.551 469.204 112.788L470.083 113.753C481.601 126.545 489.223 142.551 491.095 159.767L491.096 159.769C491.489 163.389 491.349 166.989 491.254 170.254C491.159 173.513 491.107 176.483 491.495 179.379C494.029 182.858 496.667 186.427 499.153 190.098L500.277 191.783C512.222 209.96 518.351 232.172 514.789 253.699L514.613 254.724C511.936 269.594 506.081 279.682 499.566 288.839C493.197 297.788 486.561 305.432 481.051 316.046L480.523 317.083C477.168 323.756 474.913 330.777 472.3 338.104C469.803 345.106 467.008 352.281 462.661 358.94L462.236 359.584C456.033 368.82 447.994 377.151 438.79 383.347L437.896 383.94C424.173 392.896 407.972 397.118 391.115 392.901C389.785 392.569 388.464 392.188 387.156 391.76C385.849 391.332 384.553 390.856 383.273 390.335L383.271 390.334C382.312 389.942 381.362 389.525 380.422 389.083L379.486 388.632C378.241 388.019 377.016 387.361 375.813 386.659L374.914 386.126C374.021 385.584 373.14 385.016 372.274 384.426C371.12 383.641 369.991 382.816 368.89 381.95L368.891 381.949L368.07 381.291C367.254 380.627 366.454 379.94 365.673 379.234L364.898 378.52C364.129 377.8 363.377 377.06 362.643 376.299L362.64 376.295L361.927 375.544C347.128 359.72 343.258 341.502 340.552 323.856C337.771 305.72 336.201 288.544 326.536 273.055C325.609 271.766 324.723 270.351 323.52 268.881C322.936 268.168 322.409 267.617 321.961 267.252C321.759 267.088 321.615 266.999 321.53 266.951C321.455 266.958 321.361 266.966 321.257 266.971C319.848 267.05 318.432 267.066 317.015 267.016C314.132 267.273 311.169 267.234 308.163 266.867L307.548 266.786C306.004 266.575 304.487 266.283 303 265.915L302.365 265.753C302.35 265.749 302.333 265.744 302.29 265.733L302.127 265.692L301.588 265.54L301.068 265.392L300.022 265.067L299.608 264.928L298.977 264.714L297.977 264.349L297.492 264.156L296.94 263.939L295.935 263.513L294.976 263.08L294.527 262.866L293.999 262.61L293.612 262.413L293.033 262.114L292.588 261.874C292.459 261.805 292.281 261.71 292.113 261.616L291.538 261.287L291.202 261.093L290.642 260.756L290.248 260.516L289.841 260.259L289.34 259.936L288.926 259.66L288.448 259.335L288.026 259.04L287.592 258.731L287.239 258.47C281.102 263.696 274.485 268.965 267.372 274.331C261.322 279.47 255.741 284.428 250.594 289.234L250.74 289.624L250.905 290.085L251.092 290.626L251.259 291.123L251.429 291.655L251.586 292.163L251.744 292.703L251.883 293.19L252.027 293.723L252.164 294.248L252.301 294.806L252.416 295.307L252.528 295.806L252.656 296.413L252.743 296.858L252.852 297.435L252.954 298.034L253.029 298.498L253.119 299.107L253.189 299.615L253.261 300.203L253.317 300.682L253.377 301.285L253.425 301.809L253.468 302.397L253.499 302.869L253.54 303.668L253.553 303.984L253.58 305.119L253.579 305.672L253.578 306.258C253.568 306.991 253.542 307.733 253.496 308.481L253.494 308.526L253.415 309.582L253.413 309.603L253.411 309.624C252.338 322.031 246.395 332.571 237.703 339.518L237.672 339.899L236.288 340.726C235.943 340.933 235.597 341.134 235.253 341.332C227.164 346.864 217.078 349.495 206.441 348.042L206.401 348.036L205.351 347.879L205.331 347.876C205.148 347.847 204.966 347.812 204.784 347.78C204.299 348.837 203.831 349.895 203.382 350.953L202.641 352.743C195.451 370.535 192.938 389.473 193.663 412.93C193.705 412.941 193.743 412.952 193.772 412.96L194.402 413.138L194.876 413.284L195.412 413.45L195.974 413.637L196.43 413.792L196.979 413.989L197.496 414.181L197.949 414.356L198.477 414.565L198.953 414.763L199.494 414.992L199.933 415.187L200.462 415.427L200.953 415.659L201.395 415.873L201.921 416.138L202.372 416.369L202.812 416.605L203.307 416.871L203.822 417.163L204.173 417.365L204.741 417.701L205.111 417.928L205.623 418.248L206.05 418.522L206.519 418.833L206.9 419.09L207.369 419.415L207.803 419.724L208.266 420.06L208.631 420.332L209.104 420.692L209.476 420.982L209.938 421.352C210.074 421.462 210.217 421.581 210.317 421.664L210.756 422.031C210.87 422.128 210.989 422.233 211.074 422.306L211.577 422.745L211.806 422.951L212.332 423.434L212.713 423.794L213.097 424.162L213.448 424.508L213.869 424.929L214.116 425.185C214.26 425.335 214.43 425.512 214.599 425.692L214.6 425.692L214.88 425.994L215.309 426.467L215.617 426.815L216.004 427.257L216.265 427.566C216.979 428.413 217.665 429.286 218.321 430.184L218.965 431.089L219.227 431.469L219.437 431.782L219.82 432.36L220.025 432.68L220.405 433.287L220.639 433.676L220.933 434.165L221.242 434.702C221.304 434.811 221.387 434.955 221.465 435.097L221.711 435.543L221.994 436.071L222.2 436.47L222.481 437.021L222.665 437.395L222.957 437.999L223.105 438.318L223.389 438.946L223.58 439.384L223.791 439.881L224.012 440.417L224.223 440.947L224.399 441.402L224.604 441.955C224.661 442.114 224.718 442.269 224.769 442.416C224.83 442.587 224.893 442.768 224.956 442.954L225.123 443.452L225.293 443.986L225.449 444.493L225.608 445.033L225.747 445.521L225.891 446.053L226.027 446.582C226.074 446.765 226.119 446.95 226.164 447.137L226.281 447.637L226.392 448.136L226.52 448.743L226.607 449.188L226.719 449.784L226.818 450.366L226.893 450.828L226.982 451.437L227.054 451.946L227.126 452.533L227.18 453.011L227.241 453.615L227.288 454.141L227.333 454.748L227.364 455.199L227.404 455.998L227.417 456.315L227.435 457.025L227.444 457.45L227.445 458.001L227.442 458.589C227.432 459.322 227.407 460.064 227.36 460.811L227.359 460.834L227.358 460.855L227.279 461.913L227.276 461.933L227.275 461.955C225.19 486.049 204.776 503.087 181.42 500.51L180.306 500.372L180.284 500.37L180.265 500.366L179.236 500.212L179.215 500.209L179.196 500.206L178.06 500.006L177.451 499.883L176.86 499.758C176.563 499.693 176.267 499.625 175.974 499.554L175.104 499.332C175.095 499.33 175.084 499.328 175.043 499.318L174.884 499.277L174.138 499.066C174.107 499.057 174.076 499.048 174.019 499.032L173.826 498.976L173.168 498.774L172.78 498.653L172.191 498.454L171.734 498.299L171.206 498.106L170.734 497.933L169.697 497.524L168.691 497.098L168.303 496.924L167.733 496.664L167.194 496.406L166.798 496.214L166.189 495.905L165.794 495.701L165.341 495.457C165.215 495.389 165.038 495.294 164.871 495.2L164.266 494.856L163.958 494.679L163.433 494.362L163.005 494.1L162.51 493.787L162.097 493.52L161.605 493.193L161.204 492.92L160.787 492.628L160.348 492.315L159.892 491.978L159.473 491.666L159.027 491.32L158.61 490.99L158.221 490.677L157.766 490.3L157.423 490.009L156.925 489.578L156.664 489.347L156.156 488.886L155.84 488.594L155.403 488.178L155.023 487.809L154.66 487.449L154.255 487.038L153.907 486.674L153.511 486.252L153.176 485.887L152.837 485.511L152.445 485.066L152.137 484.707L151.765 484.263L151.413 483.833L151.094 483.436L150.772 483.025L150.426 482.57L150.099 482.133L149.808 481.732L149.502 481.303L149.163 480.82L148.892 480.415L148.574 479.938L148.289 479.497L147.991 479.026L147.715 478.574L147.434 478.106L147.169 477.653L146.876 477.136L146.659 476.748L146.38 476.229L146.139 475.771L145.879 475.257L145.661 474.826L145.414 474.314L145.18 473.813L144.937 473.277L144.768 472.895L144.502 472.272L144.335 471.873L144.128 471.358L143.912 470.803L143.744 470.352L143.547 469.812L143.38 469.327L143.196 468.792L143.016 468.226L142.874 467.777L142.716 467.236L142.556 466.684L142.436 466.241L142.277 465.639L142.153 465.135L142.023 464.589L141.88 463.937L141.791 463.526L141.639 462.742L141.621 462.646C141.613 462.604 141.599 462.542 141.587 462.475L141.43 461.55C141.421 461.5 141.409 461.43 141.398 461.356L141.289 460.604L141.271 460.485C141.263 460.433 141.252 460.357 141.241 460.276L141.148 459.523L141.108 459.179L141.039 458.459L141.023 458.301C141.017 458.236 141.007 458.149 140.999 458.056L140.954 457.439L140.919 456.933L140.868 455.87L140.865 455.787L140.864 455.775C140.856 455.55 140.853 455.303 140.85 455.144L140.84 454.691L140.839 453.709C140.839 453.676 140.839 453.635 140.839 453.591L140.857 452.881L140.868 452.434L140.906 451.675L140.95 450.937C140.967 450.687 140.987 450.433 141.009 450.177L141.113 449.122C141.152 448.773 141.195 448.428 141.24 448.086L141.242 448.065C141.245 448.041 141.252 447.982 141.261 447.917L141.426 446.806L141.616 445.717L141.737 445.103L141.835 444.623L141.947 444.123L142.079 443.543L142.276 442.759L142.3 442.668C142.31 442.63 142.323 442.574 142.338 442.515L142.545 441.772L142.578 441.647C142.592 441.596 142.613 441.525 142.635 441.449L142.825 440.822L142.956 440.398L143.146 439.823L143.296 439.378L143.479 438.867L143.67 438.339L143.833 437.919L144.056 437.349L144.287 436.794L144.454 436.399L144.689 435.866L144.907 435.383L145.112 434.95L145.353 434.453L145.631 433.902L145.821 433.531L146.133 432.946L146.316 432.611L146.614 432.086L146.858 431.665L147.111 431.243L147.405 430.761L147.671 430.344L147.951 429.91L148.29 429.404L148.52 429.067L148.886 428.548L149.118 428.224L149.499 427.712L149.75 427.381L150.081 426.957L150.405 426.551L150.72 426.168L151.083 425.736L151.368 425.407L151.752 424.972L152.082 424.61L152.428 424.238L152.809 423.837L153.124 423.514L153.553 423.086L153.84 422.809L154.27 422.4L154.627 422.068L154.995 421.735L155.369 421.407L155.797 421.037L156.14 420.748L156.575 420.394L156.934 420.108L157.391 419.752L157.749 419.482L158.164 419.174L158.62 418.847L158.998 418.582L159.428 418.289L159.853 418.007L160.307 417.715L160.705 417.464L161.115 417.215L161.596 416.928L162.052 416.664L162.459 416.438L162.951 416.17L163.38 415.943L163.8 415.729L164.318 415.471L164.7 415.287L165.228 415.041L165.644 414.856L166.155 414.632L166.598 414.448L167.114 414.236L167.559 414.064L168.076 413.869L168.512 413.712L169.051 413.524L169.384 413.414C168.508 387.291 171.196 364.364 180.137 342.238L180.924 340.333C181.39 339.226 181.875 338.124 182.372 337.024C180.453 335.217 178.7 333.231 177.099 331.144C177.032 331.057 176.973 330.977 176.927 330.913C176.836 330.878 176.677 330.826 176.43 330.777C175.876 330.669 175.143 330.623 174.259 330.642C172.435 330.681 170.863 330.935 169.35 331.071C152.192 333.873 139.338 344.225 125.008 354.265C110.841 364.19 95.4577 373.563 74.0817 372.172L74.077 372.17C72.72 372.08 71.3649 371.94 70.015 371.751C68.6649 371.562 67.3185 371.323 65.979 371.035L65.9775 371.036C64.6389 370.748 63.3097 370.41 61.9915 370.026L61.0045 369.73C60.0197 369.424 59.0406 369.091 58.0695 368.731L57.1009 368.362C56.458 368.111 55.8185 367.848 55.1837 367.574L54.2353 367.153C52.9737 366.58 51.7311 365.964 50.5096 365.303L50.5076 365.302C49.2866 364.64 48.0855 363.935 46.9077 363.187L46.0285 362.619C45.1551 362.043 44.2961 361.443 43.4526 360.822L42.7884 360.324C28.9255 349.821 21.0861 334.364 18.0197 317.708L17.8239 316.598C15.8642 305.123 16.1572 293.128 18.3121 281.978L18.4682 281.206C20.1066 273.265 23.1453 266.207 26.2673 259.5C29.5339 252.483 32.8329 245.956 35.1505 238.792L35.5048 237.673C39.0738 226.142 39.843 215.722 41.6888 204.634C43.5774 193.288 46.5528 181.839 54.9573 169.678L55.541 168.845ZM437.789 379.924L438.635 379.329C438.693 379.287 438.751 379.243 438.81 379.201C438.471 379.444 438.132 379.686 437.789 379.924ZM454.387 364.504C454.443 364.437 454.5 364.371 454.555 364.303L455.213 363.488C454.941 363.828 454.665 364.167 454.387 364.504ZM458.951 358.45C458.557 359.023 458.155 359.591 457.747 360.155L458.355 359.307C458.757 358.739 459.15 358.166 459.536 357.59L458.951 358.45ZM462.184 353.251C462.301 353.041 462.416 352.83 462.53 352.619L462.585 352.513C462.452 352.76 462.32 353.006 462.184 353.251ZM399.859 390.994C399.952 391.002 400.046 391.007 400.139 391.014C399.802 390.987 399.465 390.959 399.128 390.925L399.859 390.994ZM394.714 390.286C395.699 390.473 396.681 390.629 397.66 390.756L396.926 390.654C395.945 390.512 394.961 390.341 393.975 390.139L394.714 390.286ZM389.879 389.131C390.501 389.31 391.126 389.478 391.753 389.635L390.814 389.39C390.502 389.306 390.19 389.22 389.879 389.131ZM351.34 263.008C351.818 264.029 352.285 265.068 352.725 266.126L353.139 267.057C357.089 276.052 359.795 285.236 361.626 294.754L361.992 296.728C362.836 301.45 363.371 306.188 363.889 310.792C364.346 314.853 364.791 318.812 365.424 322.722L365.706 324.394C368.882 342.307 377.301 360.767 393.606 367.459L394.413 367.779C402.78 370.937 411.657 370.052 419.812 366.317C434.022 359.805 443.254 345.787 448.415 330.262L448.713 329.352C449.694 326.285 450.506 323.162 451.336 319.956C438.051 320.556 425.389 317.543 413.904 308.215L413.334 307.743C407.47 302.837 402.971 296.873 398.613 291.286L397.255 289.564C390.57 281.179 385.362 276.107 379.546 272.487C373.339 268.625 366.192 266.261 355.271 263.586C353.962 263.374 352.651 263.181 351.34 263.008ZM376.499 383.258C376.771 383.423 377.045 383.587 377.32 383.747L376.473 383.243L376.499 383.258ZM180.599 497.04C190.684 498.418 200.228 495.832 207.8 490.452L208.482 489.955C200.805 495.671 190.99 498.46 180.599 497.04ZM370.087 378.742C370.32 378.932 370.555 379.12 370.792 379.306C371.031 379.495 371.273 379.681 371.516 379.865L370.79 379.305C370.554 379.119 370.32 378.931 370.087 378.742ZM211.101 487.817C210.469 488.381 209.82 488.923 209.154 489.443L209.815 488.916C210.47 488.382 211.107 487.825 211.726 487.247L211.101 487.817ZM214.1 484.823C213.91 485.034 213.719 485.244 213.526 485.45L214.1 484.823C214.289 484.612 214.476 484.399 214.661 484.184L214.1 484.823ZM216.768 481.493C216.602 481.726 216.433 481.957 216.262 482.185C216.604 481.728 216.937 481.263 217.259 480.789L216.768 481.493ZM221.326 473.103C221.248 473.302 221.166 473.499 221.085 473.695C221.279 473.227 221.466 472.754 221.643 472.275L221.326 473.103ZM427.171 312.56C436.092 316.463 445.647 317.321 455.717 316.245L455.717 316.244C445.245 317.362 435.329 316.39 426.103 312.076L427.171 312.56ZM174.601 495.749C174.696 495.777 174.794 495.802 174.89 495.83C174.793 495.802 174.695 495.775 174.599 495.747C174.396 495.687 174.195 495.624 173.993 495.561C174.195 495.624 174.398 495.688 174.601 495.749ZM224.189 458.401C224.182 458.938 224.163 459.477 224.135 460.018C224.163 459.478 224.182 458.94 224.19 458.403L224.189 458.401ZM167.539 492.908C167.726 493.004 167.914 493.101 168.102 493.194C167.914 493.101 167.726 493.003 167.539 492.907C167.417 492.844 167.295 492.783 167.175 492.719C167.295 492.783 167.417 492.846 167.539 492.908ZM224.046 454.286C224.062 454.473 224.075 454.66 224.088 454.847C224.075 454.66 224.063 454.473 224.048 454.286C224.034 454.125 224.018 453.963 224.003 453.802C224.018 453.963 224.033 454.125 224.046 454.286ZM166.322 492.258C166.465 492.338 166.611 492.415 166.756 492.494C166.611 492.416 166.465 492.336 166.322 492.256C166.134 492.152 165.949 492.045 165.763 491.938C165.949 492.045 166.134 492.153 166.322 492.258ZM357.267 364.467C357.34 364.577 357.416 364.686 357.49 364.796C357.248 364.436 357.01 364.076 356.777 363.714L357.267 364.467ZM162.545 489.877C162.673 489.968 162.801 490.059 162.93 490.148C163.053 490.233 163.178 490.317 163.303 490.401C163.454 490.502 163.605 490.604 163.757 490.704C163.605 490.604 163.453 490.5 163.302 490.398C163.178 490.315 163.053 490.233 162.93 490.148C162.801 490.059 162.673 489.966 162.545 489.876C162.41 489.78 162.274 489.686 162.14 489.588C162.274 489.686 162.409 489.782 162.545 489.877ZM354.788 224.617C355.065 228.89 354.992 232.739 354.562 236.869C355.776 237.049 357.043 237.209 358.414 237.409C360.753 237.752 363.3 238.204 365.782 239.101C365.957 239.125 366.16 239.152 366.331 239.18C369.924 239.77 373.548 241.363 376.367 242.521L377.567 243.022C389.504 248.099 399.827 255.13 408.924 264.828L409.831 265.807C412.804 269.065 415.454 272.666 417.972 276.011C420.376 279.205 422.682 282.196 425.219 284.822L425.731 285.344C438.174 297.819 454.86 295.606 468.569 285.628L469.122 285.217C480.685 276.512 488.802 261.275 490.875 246.385L490.971 245.661C492.696 231.725 488.187 217.94 480.367 205.763C473.225 217.203 463.741 224.922 449.991 228.519C438.405 231.549 426.624 230.602 415.216 228.125L414.114 227.88C409.466 226.829 404.906 225.466 400.501 224.15C396.06 222.822 391.779 221.543 387.51 220.586C379.017 218.682 370.84 218.116 362.429 221.036C359.636 222.006 356.932 223.133 354.788 224.617ZM223.218 448.737C223.258 448.924 223.299 449.111 223.337 449.298C223.299 449.111 223.259 448.925 223.219 448.739C223.197 448.637 223.174 448.535 223.151 448.433C223.174 448.534 223.196 448.636 223.218 448.737ZM511.413 253.975C511.256 254.844 511.088 255.696 510.91 256.532L511.17 255.267C511.253 254.841 511.334 254.411 511.412 253.977C511.471 253.651 511.528 253.325 511.581 252.999L511.582 252.998C511.528 253.324 511.471 253.65 511.413 253.975ZM354.508 359.907L354.938 360.674C354.718 360.287 354.503 359.898 354.292 359.509C354.364 359.641 354.435 359.775 354.508 359.907ZM160.918 488.669C161.054 488.776 161.192 488.884 161.33 488.989C161.43 489.065 161.531 489.14 161.633 489.215C161.531 489.139 161.429 489.063 161.329 488.987C161.191 488.882 161.054 488.774 160.917 488.667C160.788 488.566 160.658 488.466 160.53 488.364C160.658 488.466 160.788 488.568 160.918 488.669ZM222.255 445.073L222.347 445.37C222.397 445.536 222.445 445.703 222.494 445.869C222.537 446.019 222.581 446.169 222.623 446.32C222.581 446.17 222.538 446.021 222.495 445.871C222.447 445.705 222.398 445.537 222.348 445.372C222.318 445.272 222.286 445.172 222.255 445.073ZM159.749 487.726C159.889 487.843 160.03 487.958 160.171 488.073C160.03 487.958 159.889 487.842 159.75 487.724C159.666 487.654 159.583 487.583 159.5 487.512C159.583 487.583 159.666 487.656 159.749 487.726ZM221.719 443.452C221.777 443.617 221.835 443.782 221.891 443.948C221.943 444.101 221.995 444.256 222.045 444.409C222.098 444.572 222.151 444.737 222.203 444.9C222.151 444.736 222.099 444.571 222.045 444.408C221.995 444.254 221.943 444.1 221.891 443.948C221.835 443.781 221.777 443.615 221.718 443.449L221.719 443.452ZM158.261 486.417C158.355 486.504 158.451 486.589 158.545 486.675C158.45 486.589 158.354 486.503 158.26 486.416L158.261 486.417ZM156.502 484.705C156.626 484.833 156.75 484.962 156.876 485.088C156.987 485.199 157.1 485.309 157.212 485.419C157.328 485.534 157.446 485.649 157.564 485.762C157.614 485.81 157.666 485.858 157.717 485.906C157.666 485.858 157.613 485.809 157.563 485.76C157.445 485.647 157.328 485.533 157.212 485.419C157.1 485.309 156.987 485.198 156.876 485.086C156.751 484.96 156.626 484.833 156.502 484.705ZM221.375 442.513C221.431 442.659 221.485 442.806 221.539 442.953C221.485 442.807 221.432 442.66 221.376 442.515C221.323 442.374 221.27 442.233 221.215 442.093L221.214 442.092C221.268 442.232 221.322 442.372 221.375 442.513ZM155.814 483.98C155.935 484.111 156.056 484.242 156.179 484.371C156.056 484.241 155.935 484.109 155.814 483.978C155.729 483.887 155.644 483.796 155.561 483.705C155.644 483.797 155.73 483.889 155.814 483.98ZM512.376 246.133C512.395 245.861 512.411 245.59 512.425 245.318L512.376 246.133ZM512.425 245.318L512.437 245.15C512.447 244.962 512.454 244.774 512.463 244.586C512.452 244.83 512.439 245.074 512.425 245.318ZM154.543 482.55C154.637 482.66 154.732 482.771 154.827 482.881C154.947 483.019 155.068 483.157 155.19 483.294C155.217 483.325 155.245 483.354 155.273 483.385C155.245 483.354 155.217 483.323 155.19 483.292C155.068 483.155 154.947 483.019 154.827 482.881C154.731 482.771 154.636 482.659 154.542 482.548L154.543 482.55ZM153.279 480.994C153.378 481.121 153.477 481.248 153.577 481.374C153.477 481.248 153.378 481.119 153.279 480.991C153.204 480.895 153.131 480.797 153.058 480.7C153.132 480.798 153.204 480.897 153.279 480.994ZM151.537 478.579C151.621 478.703 151.706 478.828 151.792 478.952C151.825 479.001 151.859 479.049 151.892 479.097C151.858 479.048 151.824 478.999 151.79 478.95C151.705 478.826 151.621 478.701 151.537 478.576C151.493 478.511 151.449 478.444 151.405 478.378C151.449 478.445 151.493 478.512 151.537 478.579ZM149.945 476.021C149.853 475.863 149.764 475.704 149.674 475.544L149.673 475.543C149.763 475.702 149.853 475.863 149.945 476.021ZM363.368 329.168C363.534 329.911 363.711 330.655 363.896 331.399C363.712 330.655 363.535 329.912 363.369 329.17L363.368 329.168ZM146.594 468.771C146.653 468.937 146.716 469.102 146.777 469.268L146.594 468.769L146.594 468.771ZM455.56 223.103C455.714 223.04 455.867 222.977 456.02 222.913C456.139 222.863 456.257 222.811 456.374 222.761C456.483 222.714 456.591 222.667 456.699 222.62C456.875 222.542 457.05 222.464 457.225 222.384C457.274 222.362 457.324 222.34 457.373 222.317C457.523 222.248 457.672 222.178 457.821 222.107C457.929 222.057 458.036 222.006 458.144 221.954C458.246 221.905 458.348 221.855 458.45 221.804C458.584 221.738 458.718 221.672 458.851 221.605C458.947 221.556 459.043 221.507 459.138 221.458C459.26 221.396 459.381 221.334 459.502 221.271C459.628 221.205 459.753 221.138 459.878 221.07C459.972 221.02 460.066 220.969 460.159 220.918C460.304 220.839 460.448 220.758 460.592 220.678C460.655 220.642 460.719 220.607 460.782 220.571C460.934 220.485 461.085 220.397 461.236 220.309C461.314 220.264 461.392 220.219 461.469 220.173C461.589 220.102 461.708 220.031 461.827 219.959C461.947 219.886 462.067 219.811 462.187 219.737C462.267 219.688 462.347 219.638 462.426 219.588C462.543 219.515 462.66 219.441 462.777 219.366C462.9 219.287 463.024 219.207 463.146 219.126C463.219 219.079 463.291 219.031 463.362 218.983C463.496 218.894 463.63 218.805 463.763 218.714C463.835 218.665 463.908 218.615 463.98 218.565C464.117 218.471 464.253 218.375 464.389 218.279C464.463 218.227 464.536 218.174 464.609 218.121C464.724 218.038 464.84 217.956 464.954 217.872C465.049 217.803 465.143 217.733 465.237 217.663C465.342 217.585 465.447 217.506 465.551 217.427C465.642 217.359 465.731 217.289 465.821 217.22C465.938 217.129 466.055 217.039 466.171 216.948C466.234 216.898 466.297 216.847 466.361 216.796C466.491 216.693 466.62 216.589 466.749 216.484C466.839 216.411 466.927 216.337 467.016 216.263C467.103 216.192 467.189 216.12 467.274 216.048C467.364 215.972 467.454 215.895 467.544 215.818C467.671 215.71 467.797 215.6 467.923 215.49C467.946 215.469 467.97 215.449 467.993 215.428C468.146 215.293 468.299 215.158 468.45 215.021C468.496 214.979 468.541 214.938 468.587 214.896C468.916 214.596 469.24 214.29 469.561 213.98C469.585 213.956 469.61 213.932 469.634 213.908C469.773 213.773 469.912 213.637 470.049 213.499C470.066 213.483 470.084 213.467 470.1 213.451L470.539 213.005C470.377 213.172 470.213 213.336 470.049 213.499C469.912 213.637 469.773 213.773 469.634 213.908C469.61 213.932 469.585 213.956 469.561 213.98C469.24 214.29 468.916 214.596 468.587 214.896C468.541 214.938 468.496 214.979 468.45 215.021C468.299 215.158 468.146 215.293 467.993 215.428C467.97 215.449 467.946 215.469 467.923 215.49C467.797 215.6 467.671 215.71 467.544 215.818C467.454 215.895 467.364 215.972 467.274 216.048C467.189 216.12 467.103 216.192 467.016 216.263C466.927 216.337 466.839 216.411 466.749 216.484C466.62 216.589 466.491 216.693 466.361 216.796C466.297 216.847 466.234 216.898 466.171 216.948C466.055 217.039 465.938 217.129 465.821 217.22C465.731 217.289 465.642 217.359 465.551 217.427C465.447 217.506 465.342 217.585 465.237 217.663C465.143 217.733 465.049 217.803 464.954 217.872C464.84 217.956 464.724 218.038 464.609 218.121C464.536 218.174 464.463 218.227 464.389 218.279C464.253 218.375 464.117 218.471 463.98 218.565C463.908 218.615 463.835 218.665 463.763 218.714C463.437 218.936 463.109 219.153 462.777 219.366C462.66 219.441 462.543 219.515 462.426 219.588C462.347 219.638 462.267 219.688 462.187 219.737C462.067 219.811 461.947 219.886 461.827 219.959C461.708 220.031 461.589 220.102 461.469 220.173C461.392 220.219 461.314 220.264 461.236 220.309C461.085 220.397 460.934 220.485 460.782 220.571C460.719 220.607 460.655 220.642 460.592 220.678C460.448 220.758 460.304 220.839 460.159 220.918C460.066 220.969 459.972 221.02 459.878 221.07C459.753 221.138 459.628 221.205 459.502 221.271C459.381 221.334 459.26 221.396 459.138 221.458C459.043 221.507 458.947 221.556 458.851 221.605C458.718 221.672 458.584 221.738 458.45 221.804C458.348 221.855 458.246 221.905 458.144 221.954C458.036 222.006 457.929 222.057 457.821 222.107C457.672 222.178 457.523 222.248 457.373 222.317C457.324 222.34 457.274 222.362 457.225 222.384C457.05 222.464 456.875 222.542 456.699 222.62C456.591 222.667 456.483 222.714 456.374 222.761C456.257 222.811 456.139 222.863 456.02 222.913C455.867 222.977 455.714 223.04 455.56 223.103ZM470.974 212.552L471.403 212.093C471.43 212.064 471.455 212.034 471.482 212.005C471.314 212.189 471.145 212.372 470.974 212.552ZM190.423 397.67C190.397 398.384 190.375 399.101 190.357 399.822L190.423 397.67C190.449 396.957 190.479 396.247 190.513 395.541L190.423 397.67ZM473.057 210.203C473.062 210.196 473.068 210.19 473.074 210.183L473.48 209.689C473.34 209.862 473.198 210.033 473.057 210.203ZM449.893 225.034C450.291 224.924 450.684 224.808 451.074 224.69C450.677 224.81 450.276 224.928 449.872 225.04L449.893 225.034ZM474.278 208.679L473.882 209.187C474.272 208.694 474.655 208.19 475.033 207.676C474.784 208.015 474.532 208.349 474.278 208.679ZM378.52 268.109C378.785 268.252 379.048 268.398 379.309 268.545L378.52 268.109C378.255 267.966 377.988 267.825 377.719 267.686L378.52 268.109ZM348.274 259.27C350.775 259.541 353.272 259.879 355.762 260.284C364.566 262.438 371.186 264.439 376.908 267.275L376.085 266.874C370.551 264.246 364.146 262.333 355.761 260.283C352.856 259.81 349.943 259.428 347.023 259.139L348.274 259.27ZM354.349 279.279L354.046 278.357C353.975 278.144 353.902 277.932 353.829 277.719C354.006 278.238 354.18 278.758 354.349 279.279ZM191.342 384.973C191.258 385.724 191.177 386.479 191.104 387.238L191.314 385.213C191.323 385.133 191.333 385.053 191.342 384.973ZM420.074 225.689L421.155 225.876C420.691 225.799 420.228 225.716 419.764 225.633C419.867 225.651 419.971 225.671 420.074 225.689ZM193.097 373.435C193.07 373.571 193.045 373.707 193.019 373.844C193.059 373.634 193.1 373.425 193.141 373.216L193.097 373.435ZM432.311 108.579C428.597 113.697 424.027 117.82 419.641 121.685C414.181 126.496 409.03 130.893 405.136 136.56C399.232 145.526 395.039 155.561 390.844 165.98C387.214 174.998 383.569 184.333 378.83 193.124C380.323 193.503 381.861 193.834 383.455 194.159C386.436 194.769 389.677 195.378 392.847 196.311C414.031 202.539 432.836 210.051 451.643 200.54L452.461 200.111C460.691 193.962 464.93 184.867 466.326 173.991L466.326 173.98L466.328 173.968C466.439 173.15 466.53 172.329 466.6 171.506L466.692 170.269C466.718 169.856 466.739 169.442 466.754 169.028L466.785 167.784C466.79 167.37 466.791 166.955 466.786 166.54L466.786 166.537L466.757 165.292C466.743 164.877 466.723 164.46 466.698 164.044L466.61 162.8C466.575 162.385 466.535 161.971 466.49 161.557L466.49 161.554L466.342 160.312C466.287 159.899 466.228 159.486 466.164 159.073L465.954 157.836C465.88 157.425 465.801 157.014 465.717 156.605L465.449 155.379C465.355 154.972 465.257 154.565 465.153 154.159L464.827 152.943C464.714 152.54 464.595 152.138 464.473 151.737L464.09 150.539C463.957 150.141 463.82 149.745 463.678 149.35L463.678 149.348L463.238 148.169C463.087 147.778 462.931 147.386 462.77 146.998L462.276 145.841C462.106 145.457 461.931 145.075 461.752 144.695C461.394 143.935 461.019 143.183 460.625 142.44L460.023 141.334C459.818 140.967 459.608 140.602 459.395 140.241L458.742 139.165C458.52 138.809 458.293 138.455 458.063 138.104L457.358 137.059C457.123 136.718 456.884 136.381 456.641 136.047L455.902 135.053C452.176 130.104 447.947 125.392 443.542 120.661C439.851 116.697 435.997 112.677 432.311 108.579ZM193.486 371.528C193.367 372.089 193.253 372.651 193.141 373.216L193.486 371.528ZM412.988 224.201C413.551 224.337 414.115 224.469 414.681 224.596L412.988 224.199C412.425 224.062 411.862 223.922 411.301 223.777L412.988 224.201ZM349.012 265.653C348.959 265.534 348.906 265.414 348.852 265.295L348.364 264.238C348.584 264.707 348.8 265.179 349.012 265.653ZM488.001 170.012C487.985 170.558 487.972 171.105 487.96 171.651C487.99 170.271 488.039 168.891 488.071 167.51L488.001 170.012ZM194.347 367.755L194.339 367.788C194.345 367.766 194.349 367.743 194.355 367.72C194.352 367.732 194.35 367.743 194.347 367.755ZM235.443 336.992C235.43 337.012 235.417 337.027 235.404 337.037L235.364 337.057C235.392 337.052 235.417 337.031 235.443 336.992ZM196.121 361.273C196.08 361.406 196.041 361.539 196.001 361.672C196.133 361.234 196.267 360.796 196.403 360.359L196.121 361.273ZM397.972 219.937C400.176 220.586 402.386 221.257 404.606 221.91L401.283 220.922C400.177 220.591 399.074 220.262 397.972 219.937ZM196.989 358.537L196.693 359.446C196.793 359.134 196.895 358.822 196.998 358.51C196.995 358.519 196.992 358.528 196.989 358.537ZM246.015 324.007C245.322 325.386 244.552 326.711 243.714 327.981C244.677 326.522 245.549 324.99 246.32 323.388L246.015 324.007ZM246.898 322.129C246.845 322.251 246.789 322.373 246.734 322.495C246.884 322.162 247.031 321.828 247.172 321.49L246.898 322.129ZM469.956 170.3C469.963 170.187 469.969 170.073 469.975 169.96L470.004 169.296C469.991 169.631 469.975 169.966 469.956 170.3ZM320.947 263.614C321.232 263.602 321.517 263.539 321.802 263.578C322.674 263.701 323.582 264.305 324.465 265.139L324.224 264.917C323.418 264.198 322.595 263.688 321.802 263.577C321.517 263.538 321.232 263.602 320.947 263.614ZM250.234 308.343L250.171 309.185C250.013 311.008 249.741 312.787 249.364 314.515L249.544 313.648C249.829 312.194 250.04 310.706 250.171 309.187L250.234 308.343ZM470.027 165.975L470.007 165.31C470.003 165.18 469.998 165.05 469.992 164.921C470.007 165.272 470.019 165.624 470.027 165.975ZM391.368 218.097C390.885 217.973 390.401 217.852 389.917 217.735L391.368 218.097ZM389.917 217.735L389.72 217.685C389.579 217.651 389.438 217.62 389.297 217.586C389.504 217.635 389.711 217.684 389.917 217.735ZM384.769 216.627L385.595 216.782C385.155 216.697 384.715 216.617 384.274 216.54C384.439 216.569 384.604 216.597 384.769 216.627ZM220.122 285.367C209.271 279.677 196.325 283.742 190.985 294.603C185.559 305.636 190.025 319.528 200.978 325.624L201.494 325.901C212.344 331.591 225.288 327.526 230.629 316.666C236.054 305.633 231.59 291.742 220.638 285.646L220.122 285.367ZM350.928 239.604C350.975 239.276 351.018 238.951 351.061 238.628L350.928 239.604ZM351.061 238.628L351.076 238.522C351.083 238.469 351.088 238.416 351.095 238.363C351.084 238.451 351.072 238.54 351.061 238.628ZM234.328 316.521C234.332 316.509 234.337 316.497 234.342 316.485L234.577 315.876C234.498 316.092 234.414 316.307 234.328 316.521ZM250.224 302.501C250.228 302.562 250.231 302.623 250.235 302.684C250.231 302.623 250.228 302.561 250.224 302.499C250.215 302.377 250.206 302.255 250.196 302.133C250.206 302.256 250.215 302.378 250.224 302.501ZM181.534 347.829C181.51 347.895 181.485 347.961 181.461 348.026C181.613 347.611 181.767 347.196 181.923 346.781L181.534 347.829ZM306.624 263.269C306.826 263.303 307.028 263.336 307.231 263.366L306.624 263.269C306.422 263.235 306.22 263.199 306.019 263.162L306.624 263.269ZM249.901 299.458C249.923 299.614 249.946 299.77 249.966 299.927C249.99 300.108 250.011 300.29 250.032 300.471C250.049 300.618 250.067 300.766 250.083 300.913C250.103 301.099 250.121 301.285 250.138 301.471C250.121 301.286 250.104 301.1 250.084 300.915C250.068 300.767 250.049 300.618 250.032 300.471C250.011 300.29 249.991 300.109 249.967 299.929C249.947 299.772 249.923 299.614 249.901 299.458ZM372.358 215.699C373.841 215.622 375.319 215.623 376.792 215.689L375.959 215.658C374.762 215.625 373.562 215.637 372.358 215.699ZM302.824 262.441C302.897 262.461 302.97 262.479 303.043 262.498C303.825 262.704 304.617 262.887 305.417 263.047L304.818 262.922C304.221 262.793 303.63 262.65 303.043 262.496C302.97 262.477 302.896 262.459 302.823 262.44C302.656 262.395 302.49 262.348 302.324 262.301C302.49 262.347 302.657 262.396 302.824 262.441ZM300.876 261.865C301.029 261.914 301.183 261.96 301.337 262.007C301.183 261.96 301.029 261.912 300.876 261.862C300.748 261.821 300.621 261.778 300.494 261.735C300.621 261.778 300.748 261.823 300.876 261.865ZM369.783 215.912L368.94 216.016C368.897 216.022 368.854 216.029 368.81 216.035C369.135 215.99 369.459 215.949 369.783 215.912ZM467.354 150.159C467.291 149.961 467.227 149.763 467.161 149.565L467.153 149.542C467.221 149.748 467.288 149.953 467.354 150.159ZM351.674 227.504C351.673 227.46 351.672 227.416 351.671 227.372L351.669 227.307C351.671 227.372 351.672 227.438 351.674 227.504ZM248.659 293.644C248.692 293.759 248.726 293.874 248.758 293.989C248.803 294.153 248.847 294.318 248.891 294.482C248.933 294.643 248.976 294.805 249.017 294.967C248.977 294.805 248.934 294.645 248.892 294.484C248.848 294.32 248.804 294.155 248.759 293.992C248.727 293.876 248.693 293.76 248.659 293.644ZM361.279 217.846C361.381 217.811 361.484 217.776 361.586 217.742C361.484 217.776 361.381 217.809 361.279 217.844C361.023 217.933 360.765 218.026 360.506 218.119C360.765 218.026 361.023 217.935 361.279 217.846ZM248.338 292.571C248.387 292.727 248.436 292.883 248.483 293.04C248.436 292.884 248.389 292.728 248.34 292.572C248.288 292.408 248.235 292.242 248.182 292.078L248.338 292.571ZM481.38 136.664C481.346 136.591 481.314 136.517 481.28 136.444L480.957 135.75C481.101 136.054 481.24 136.359 481.38 136.664ZM358.136 219.034C358.103 219.048 358.069 219.061 358.036 219.075L357.387 219.352C357.635 219.243 357.886 219.138 358.136 219.034ZM356.741 219.643L356.1 219.948C356.082 219.957 356.063 219.966 356.044 219.975C356.275 219.862 356.508 219.751 356.741 219.643ZM184.564 334.635C184.58 334.651 184.598 334.666 184.614 334.681C184.448 334.527 184.284 334.37 184.12 334.213L184.564 334.635ZM319.011 202.039C308.16 196.349 295.216 200.414 289.875 211.274C284.45 222.307 288.914 236.198 299.867 242.294L300.383 242.573C311.234 248.263 324.177 244.198 329.518 233.337C334.944 222.304 330.479 208.413 319.526 202.317L319.011 202.039ZM293.565 258.673C293.71 258.754 293.857 258.833 294.003 258.912C293.856 258.832 293.708 258.752 293.563 258.671C293.384 258.571 293.208 258.469 293.032 258.367C293.209 258.469 293.386 258.574 293.565 258.673ZM291.84 257.656C291.96 257.73 292.082 257.804 292.203 257.878C292.375 257.982 292.547 258.086 292.72 258.188C292.547 258.086 292.374 257.98 292.203 257.875C292.081 257.802 291.959 257.729 291.838 257.654C291.713 257.576 291.589 257.496 291.464 257.417C291.589 257.496 291.714 257.577 291.84 257.656ZM250.958 284.287C250.252 284.934 249.554 285.579 248.863 286.221L246.719 288.232C248.1 286.928 249.513 285.612 250.958 284.287ZM181.176 331.062C181.202 331.093 181.23 331.124 181.256 331.155C181.095 330.966 180.935 330.776 180.777 330.585L181.176 331.062ZM463.147 140.331C463.254 140.528 463.36 140.726 463.465 140.924C463.255 140.528 463.041 140.135 462.822 139.744L463.147 140.331ZM288.573 255.402C288.69 255.492 288.81 255.581 288.929 255.67C289.079 255.782 289.23 255.894 289.382 256.004L288.927 255.668C288.809 255.58 288.69 255.491 288.573 255.402ZM287.043 254.184C281.231 259.208 274.963 264.275 268.22 269.435L271.081 267.229C276.745 262.829 282.062 258.49 287.043 254.184ZM373.891 195.092L374.418 194.188C374.429 194.168 374.44 194.147 374.451 194.127C374.266 194.449 374.08 194.772 373.891 195.092ZM296.221 243.874C296.38 243.983 296.541 244.092 296.703 244.199L297.263 244.558C296.909 244.338 296.562 244.109 296.221 243.874ZM164.571 328.58C164.321 328.639 164.072 328.7 163.824 328.762L163.792 328.771C164.05 328.705 164.31 328.642 164.571 328.58ZM291.287 239.497C291.572 239.819 291.864 240.136 292.165 240.446L291.721 239.976C291.574 239.818 291.429 239.658 291.287 239.497ZM152.294 332.88C152.728 332.68 153.163 332.484 153.601 332.293L152.292 332.88L152.294 332.88ZM222.085 282.7C209.529 275.712 194.301 280.315 188.072 292.981C194.301 280.315 209.53 275.714 222.086 282.701C222.916 283.164 223.714 283.666 224.478 284.203L224.093 283.937C223.447 283.498 222.777 283.085 222.085 282.7ZM469.773 118.325C469.527 118.031 469.278 117.74 469.028 117.45L469.773 118.325ZM289.302 236.97C289.546 237.321 289.799 237.667 290.059 238.007L289.676 237.492C289.424 237.147 289.179 236.796 288.943 236.44L289.302 236.97ZM469.028 117.45L468.771 117.148C468.647 117.005 468.52 116.865 468.395 116.723C468.608 116.964 468.818 117.207 469.028 117.45ZM452.882 126.198C452.848 126.158 452.814 126.117 452.779 126.077L451.933 125.101C452.251 125.466 452.567 125.832 452.882 126.198ZM343.834 199.738C343.843 199.751 343.853 199.764 343.862 199.777C343.853 199.765 343.845 199.752 343.836 199.739C343.737 199.593 343.634 199.448 343.533 199.303C343.634 199.447 343.735 199.592 343.834 199.738ZM91.6375 367.361C91.885 367.302 92.132 367.24 92.3779 367.178C91.8646 367.308 91.3475 367.432 90.8269 367.548L91.6375 367.361ZM89.187 367.891L90.0096 367.726C89.7255 367.785 89.4404 367.842 89.1541 367.898C89.165 367.895 89.1761 367.894 89.187 367.891ZM287.942 234.807L287.964 234.845C287.927 234.78 287.891 234.715 287.855 234.65C287.884 234.702 287.913 234.755 287.942 234.807ZM286.291 231.366C286.354 231.523 286.418 231.68 286.484 231.837L286.291 231.366ZM285.848 230.176L286.063 230.774C285.988 230.574 285.916 230.373 285.846 230.171L285.848 230.176ZM404.976 131.211C404.084 132.29 403.23 133.41 402.427 134.582C396.941 142.911 392.915 152.088 389.115 161.412L390.263 158.62C393.735 150.261 397.491 142.08 402.428 134.584C403.232 133.411 404.084 132.29 404.976 131.211ZM65.5669 367.534C65.8813 367.608 66.1965 367.679 66.512 367.747C67.7749 368.018 69.0444 368.242 70.3188 368.42C71.2745 368.554 72.2321 368.662 73.1909 368.743L72.2326 368.652C71.5937 368.586 70.956 368.509 70.3188 368.42C69.0443 368.242 67.7738 368.016 66.5108 367.745C65.8799 367.609 65.2513 367.462 64.6248 367.304L65.5669 367.534ZM365.971 171.058C366.129 170.709 366.288 170.36 366.444 170.009L366.493 169.897C366.32 170.285 366.146 170.672 365.971 171.058ZM284.628 225.263C284.629 225.272 284.631 225.281 284.632 225.29C284.599 225.072 284.567 224.854 284.539 224.636L284.628 225.263ZM52.8841 263.854C51.0808 266.956 49.3334 269.974 47.7808 273.126L47.1197 274.497C40.5091 288.514 37.4687 304.444 42.0996 319.399L42.3334 320.134C45.3693 329.408 51.0106 337.24 59.2432 341.672L59.9767 342.056C75.4199 349.891 93.4329 344.127 107.653 334.699L108.994 333.794C112.105 331.656 115.125 329.336 118.222 326.956C121.733 324.258 125.347 321.483 129.16 318.964L130.763 317.921C138.792 312.781 147.208 308.621 156.393 305.657C157.431 305.286 158.472 304.949 159.51 304.634C158.506 303.713 157.491 302.805 156.463 301.912C147.249 295.064 140.8 290.998 133.955 288.687C127.543 286.522 120.542 285.819 110.271 286.184L108.172 286.271C101.392 286.59 94.2577 287.054 86.9294 285.72L86.219 285.584C72.0588 282.782 61.4421 274.785 52.8841 263.854ZM315.054 196.965C315.015 196.954 314.976 196.943 314.937 196.932L314.322 196.779C314.567 196.836 314.81 196.899 315.054 196.965ZM340.698 179.431C340.716 179.373 340.736 179.314 340.754 179.256L341.121 178.051C340.983 178.512 340.841 178.972 340.698 179.431ZM313.09 196.519L313.707 196.641C313.355 196.567 313.003 196.502 312.651 196.444C312.797 196.468 312.943 196.492 313.09 196.519ZM312.473 196.414C312.533 196.423 312.592 196.434 312.651 196.444C312.386 196.4 312.121 196.358 311.856 196.323L312.473 196.414ZM310.622 196.191C310.445 196.177 310.268 196.164 310.091 196.154L310.622 196.191ZM285.926 212.064L285.709 212.675C285.791 212.433 285.879 212.193 285.969 211.952C285.955 211.99 285.94 212.027 285.926 212.064ZM310.091 196.154L310.006 196.148C309.918 196.143 309.831 196.14 309.743 196.136C309.859 196.141 309.975 196.147 310.091 196.154ZM308.777 196.11C308.916 196.111 309.056 196.112 309.195 196.116C308.851 196.107 308.507 196.107 308.164 196.113L308.777 196.11ZM307.552 196.132L306.943 196.166C306.935 196.166 306.927 196.167 306.918 196.168C307.129 196.153 307.341 196.141 307.552 196.132ZM287.259 209.065L287.207 209.168C287.255 209.074 287.305 208.982 287.354 208.889C287.323 208.948 287.29 209.006 287.259 209.065ZM288.581 206.833C288.571 206.849 288.561 206.865 288.551 206.881C288.568 206.854 288.585 206.827 288.603 206.8L288.581 206.833ZM288.942 206.306C288.827 206.469 288.714 206.634 288.603 206.8L288.942 206.306ZM291.337 203.402C291.05 203.699 290.77 204.006 290.497 204.32L290.912 203.856C291.193 203.55 291.48 203.251 291.774 202.963L291.337 203.402ZM297.151 198.992C297.708 198.691 298.276 198.414 298.854 198.159C298.299 198.404 297.752 198.668 297.216 198.956L297.151 198.992ZM295.081 200.249C294.746 200.476 294.417 200.713 294.094 200.958L294.584 200.597C294.913 200.361 295.247 200.133 295.587 199.914L295.081 200.249ZM420.38 116.488C420.412 116.459 420.445 116.431 420.477 116.401L421.465 115.494C421.106 115.828 420.743 116.158 420.38 116.488ZM111.703 163.748C98.0611 165.774 85.5507 171.511 77.1455 182.288L76.7134 182.849C67.8878 194.545 62.9048 211.267 64.7338 226.307L64.8243 227.021C67.2284 244.623 76.978 259.339 93.9466 260.774L94.6489 260.827C98.165 261.064 101.776 260.872 105.592 260.62C109.59 260.357 113.853 260.025 118.097 260.181L119.38 260.238C132.609 260.919 144.769 264.562 156.684 270.972L158.842 272.131C161.108 273.364 163.629 274.834 165.752 276.67L165.754 276.669C165.89 276.787 166.047 276.933 166.182 277.056C168.237 278.278 170.14 279.826 171.876 281.357C171.902 281.305 171.929 281.251 171.956 281.2L172.271 280.615L172.451 280.281L172.75 279.756L172.993 279.334L173.246 278.913L173.542 278.431L173.807 278.013L174.087 277.58L174.426 277.074L174.657 276.736L175.022 276.218L175.254 275.894L175.635 275.381L175.885 275.051L176.217 274.626L176.542 274.221L176.857 273.838L177.218 273.407L177.505 273.075L177.888 272.642L178.218 272.28L178.564 271.907L178.945 271.507L179.259 271.185L179.688 270.757L179.976 270.477L180.405 270.069L180.763 269.738L181.131 269.404L181.491 269.086C181.281 268.556 181.066 268.029 180.845 267.509L180.494 266.708C176.8 258.494 171.042 252.606 164.221 247.332C160.681 244.596 156.912 242.066 153.001 239.443C149.123 236.843 145.108 234.151 141.248 231.178L140.335 230.469C130.931 223.102 122.327 214.409 116.586 203.183L116.231 202.481C109.733 189.412 108.722 176.898 111.703 163.748ZM425.284 111.735C425.542 111.462 425.796 111.186 426.05 110.909L425.284 111.735ZM426.05 110.909L426.195 110.754C426.335 110.6 426.474 110.443 426.613 110.287C426.427 110.496 426.239 110.703 426.05 110.909ZM427.9 108.785C427.917 108.766 427.934 108.746 427.95 108.726L428.373 108.204C428.217 108.399 428.059 108.593 427.9 108.785ZM428.79 107.675L429.2 107.14C429.242 107.084 429.283 107.026 429.325 106.97C429.148 107.206 428.971 107.442 428.79 107.675ZM432.689 104.141C432.858 104.335 433.03 104.527 433.201 104.721C432.748 104.207 432.297 103.693 431.85 103.176L432.689 104.141ZM47.6975 359.808C47.972 359.989 48.2484 360.169 48.5259 360.345C48.8032 360.521 49.0822 360.694 49.3621 360.865L48.5247 360.343C48.2473 360.167 47.972 359.989 47.6975 359.808ZM344.673 163.257C344.678 163.229 344.684 163.201 344.689 163.174L344.701 163.11C344.692 163.159 344.682 163.208 344.673 163.257ZM431.037 104.497C431.068 104.447 431.102 104.399 431.134 104.35L431.496 103.767C431.346 104.013 431.191 104.255 431.037 104.497ZM345.137 160.618L345.347 159.332C345.371 159.177 345.393 159.023 345.417 158.868C345.327 159.453 345.234 160.037 345.137 160.618ZM45.265 358.111C45.4643 358.258 45.6657 358.401 45.8666 358.546C45.6654 358.401 45.4643 358.256 45.2647 358.109C44.969 357.891 44.6763 357.67 44.3861 357.448C44.6766 357.671 44.9689 357.893 45.265 358.111ZM145.902 290.73L145.192 290.31C145.114 290.264 145.034 290.22 144.956 290.175C145.269 290.356 145.585 290.541 145.902 290.73ZM327.558 156.867C327.572 156.786 327.586 156.705 327.6 156.624L327.78 155.505C327.709 155.961 327.634 156.415 327.558 156.867ZM127.492 283.652C127.797 283.704 128.1 283.758 128.401 283.814L127.65 283.677C127.597 283.668 127.544 283.661 127.492 283.652ZM433.546 77.3072C433.763 77.493 433.981 77.6827 434.198 77.8777L433.547 77.3075C433.374 77.1592 433.199 77.0128 433.023 76.8726L433.546 77.3072ZM119.56 282.831L118.681 282.794C118.571 282.79 118.459 282.788 118.348 282.784C118.757 282.797 119.161 282.813 119.56 282.831ZM153.358 143.479L153.356 143.48C152.705 143.933 152.064 144.406 151.433 144.896L151.432 144.897C151.117 145.141 150.803 145.39 150.495 145.642L149.582 146.411C148.978 146.933 148.387 147.472 147.811 148.025C147.235 148.578 146.671 149.149 146.123 149.732C145.85 150.024 145.578 150.318 145.312 150.617L144.525 151.528C144.008 152.139 143.505 152.765 143.018 153.405L143.004 153.424C136.478 161.873 133.091 171.372 134.425 182.045C134.509 182.355 134.593 182.666 134.682 182.975C140.461 202.972 156.519 212.861 173.815 224.384L177.288 226.715C180.069 228.597 182.676 230.752 185.108 232.703C186.407 233.745 187.671 234.74 188.939 235.666C191.776 225.977 195.727 216.788 199.468 207.823C203.784 197.479 207.838 187.396 210.012 176.681C211.285 169.754 210.829 162.689 210.445 155.097C210.138 149.013 209.882 142.607 210.89 136.208C205.586 136.055 200.223 135.714 195.008 135.466C188.375 135.15 181.893 134.982 175.613 135.476L174.418 135.591L173.226 135.739C172.434 135.847 171.644 135.977 170.86 136.127L170.858 136.127C170.465 136.202 170.074 136.281 169.684 136.366L168.518 136.637C167.742 136.827 166.972 137.037 166.209 137.266C165.827 137.381 165.447 137.501 165.069 137.626L163.939 138.016C163.19 138.285 162.448 138.574 161.715 138.882L161.713 138.884C161.346 139.038 160.981 139.197 160.618 139.36L159.537 139.865C158.819 140.212 158.111 140.578 157.415 140.961L156.376 141.55L155.354 142.166C154.678 142.585 154.011 143.023 153.358 143.479ZM41.8077 327.403C41.8728 327.537 41.9415 327.669 42.0078 327.801C41.9063 327.598 41.8051 327.395 41.7058 327.19L41.8077 327.403ZM224.768 201.845C224.818 201.718 224.87 201.592 224.92 201.465L225.382 200.277C225.181 200.799 224.975 201.321 224.768 201.845ZM225.836 199.091L226.278 197.909C226.382 197.627 226.484 197.345 226.586 197.065C226.341 197.739 226.092 198.414 225.836 199.091ZM228.561 191.186C228.594 191.081 228.627 190.975 228.659 190.87L228.673 190.823C228.637 190.944 228.599 191.064 228.561 191.186ZM90.028 282.814L90.6905 282.893C90.4187 282.863 90.1468 282.829 89.8747 282.794C89.9257 282.801 89.9769 282.808 90.028 282.814ZM229.33 188.55C229.419 188.225 229.506 187.899 229.591 187.575L229.33 188.55ZM229.591 187.575L229.639 187.394C229.675 187.256 229.709 187.117 229.743 186.979C229.693 187.178 229.643 187.376 229.591 187.575ZM82.6486 281.304C83.965 281.683 85.3159 282.01 86.7019 282.284C86.8715 282.318 87.0415 282.347 87.2109 282.378C87.0411 282.347 86.8708 282.316 86.7008 282.283C85.0838 281.963 83.5158 281.571 81.9932 281.11L82.6486 281.304ZM352.167 102.677C352.977 102.245 353.77 101.783 354.546 101.294C353.577 101.906 352.579 102.474 351.556 102.996L352.167 102.677ZM357.364 99.3275C357.183 99.467 357 99.6053 356.815 99.7415C357.184 99.4692 357.548 99.1904 357.907 98.9048L357.364 99.3275ZM350.316 103.601C350.525 103.504 350.732 103.404 350.939 103.303L350.316 103.601C350.108 103.698 349.899 103.793 349.688 103.886L350.316 103.601ZM364.638 91.9861C364.079 92.7282 363.495 93.4481 362.887 94.1442L363.338 93.6188C363.934 92.911 364.506 92.1796 365.053 91.4264L364.638 91.9861ZM366.503 89.2758C366.166 89.8122 365.819 90.3405 365.458 90.8572L365.853 90.2809C366.075 89.9504 366.29 89.6141 366.503 89.2758ZM367.335 87.8916C367.139 88.2347 366.937 88.5735 366.731 88.9093C367.06 88.3735 367.377 87.8292 367.681 87.275L367.335 87.8916ZM79.4262 280.252L80.0597 280.479C79.7515 280.371 79.4458 280.258 79.1415 280.144C79.2364 280.18 79.3309 280.217 79.4262 280.252ZM231.684 176.903C231.575 177.695 231.46 178.486 231.331 179.272L231.561 177.794C231.604 177.498 231.643 177.2 231.684 176.903ZM368.654 85.3798C368.448 85.8084 368.236 86.2322 368.016 86.651L368.34 86.0203C368.447 85.8085 368.551 85.5954 368.654 85.3812L368.654 85.3798ZM231.765 176.31C231.739 176.508 231.711 176.705 231.684 176.903C231.778 176.21 231.868 175.516 231.946 174.82L231.765 176.31ZM372.359 72.4539C371.85 76.8456 370.679 80.9699 368.957 84.7341L369.248 84.0814C370.812 80.4949 371.879 76.5933 372.359 72.4539ZM145.966 230.637C146.342 230.91 146.721 231.18 147.099 231.449C146.669 231.143 146.241 230.836 145.813 230.525L145.966 230.637ZM74.5509 278.145L75.1431 278.436C74.9376 278.337 74.7323 278.236 74.5286 278.134C74.536 278.138 74.5435 278.141 74.5509 278.145ZM232.337 170.274C232.278 171.293 232.198 172.31 232.102 173.325L232.232 171.827C232.272 171.31 232.307 170.792 232.337 170.274ZM142.229 227.819L143.12 228.513C142.788 228.257 142.458 227.999 142.129 227.74L142.229 227.819ZM36.9387 297.981C36.9219 298.147 36.9066 298.313 36.891 298.478C36.9313 298.049 36.9752 297.619 37.0242 297.19L36.9387 297.981ZM372.641 68.1151C372.632 68.7939 372.606 69.4758 372.564 70.1589L372.485 71.2171C372.471 71.3769 372.455 71.5363 372.439 71.6954C372.455 71.5367 372.472 71.3781 372.486 71.2188L372.565 70.1579C372.607 69.4751 372.632 68.7936 372.641 68.1151ZM321.141 104.832C321.27 104.877 321.402 104.918 321.532 104.963C321.402 104.918 321.27 104.875 321.14 104.829C320.958 104.765 320.776 104.698 320.594 104.631C320.776 104.698 320.958 104.767 321.141 104.832ZM232.344 161.331C232.403 162.295 232.441 163.262 232.46 164.232C232.441 163.263 232.404 162.296 232.345 161.332C232.326 161.026 232.304 160.718 232.281 160.409C232.304 160.718 232.325 161.025 232.344 161.331ZM319.263 104.118C319.399 104.174 319.536 104.228 319.673 104.282C319.845 104.35 320.019 104.418 320.193 104.484C320.019 104.418 319.845 104.348 319.673 104.28C319.537 104.226 319.399 104.172 319.263 104.117C319.033 104.023 318.805 103.926 318.577 103.829C318.805 103.926 319.033 104.025 319.263 104.118ZM317.838 103.502C318.012 103.581 318.188 103.661 318.364 103.738C318.188 103.661 318.011 103.579 317.837 103.5C317.691 103.434 317.546 103.37 317.402 103.303C317.546 103.37 317.692 103.436 317.838 103.502ZM64.7308 271.633C64.8988 271.774 65.0681 271.915 65.2375 272.054L64.7304 271.631C64.5621 271.489 64.3939 271.347 64.227 271.203L64.7308 271.633ZM316.086 102.657C316.229 102.73 316.372 102.806 316.515 102.878C316.681 102.96 316.849 103.039 317.015 103.119C316.848 103.039 316.68 102.958 316.514 102.876C316.371 102.805 316.229 102.73 316.086 102.657ZM148.53 209.972L149.268 210.635C148.952 210.354 148.639 210.071 148.328 209.786C148.396 209.848 148.463 209.911 148.53 209.972ZM312.639 100.683C312.751 100.755 312.864 100.826 312.977 100.897C312.864 100.826 312.75 100.753 312.638 100.682C312.496 100.591 312.353 100.5 312.212 100.408L312.639 100.683ZM19.9163 295.566C19.9076 295.719 19.9004 295.873 19.8925 296.026C19.9191 295.511 19.9493 294.996 19.9841 294.482L19.9163 295.566ZM371.785 58.992C371.747 58.8075 371.709 58.6233 371.67 58.4395L371.668 58.4378C371.708 58.622 371.747 58.8071 371.785 58.992ZM145.669 207.235L146.37 207.932C146.004 207.573 145.642 207.208 145.284 206.841C145.412 206.972 145.54 207.105 145.669 207.235ZM308.643 97.7927C308.76 97.8876 308.877 97.9835 308.994 98.0772C308.877 97.9832 308.759 97.8862 308.642 97.791C308.497 97.6729 308.353 97.5546 308.21 97.4346C308.353 97.5547 308.498 97.6745 308.643 97.7927ZM371.069 56.0058C371.03 55.8648 370.989 55.7245 370.949 55.5841L370.948 55.5819C370.989 55.7226 371.03 55.8646 371.069 56.0058ZM44.8689 271.502C44.5269 272.196 44.1932 272.897 43.8675 273.603L44.362 272.549C44.529 272.199 44.6984 271.851 44.8693 271.504C44.9317 271.377 44.9959 271.251 45.059 271.124C44.9961 271.25 44.9312 271.375 44.8689 271.502ZM55.7455 262.278C55.4798 261.944 55.2164 261.607 54.9546 261.267L54.9802 261.3C55.2336 261.629 55.4885 261.955 55.7455 262.278ZM46.6664 268.041C46.3205 268.678 45.9814 269.319 45.6489 269.963C45.8325 269.608 46.0167 269.253 46.2045 268.9L46.6664 268.041ZM305.272 94.7328C305.405 94.8671 305.54 95.0009 305.675 95.1334C305.728 95.1858 305.783 95.2382 305.836 95.2904C305.782 95.2379 305.727 95.1845 305.674 95.1317C305.539 94.9993 305.405 94.8655 305.272 94.7314C305.186 94.6448 305.101 94.5581 305.016 94.4708C305.101 94.5581 305.186 94.6462 305.272 94.7328ZM126.878 213.059L127.592 213.925C127.163 213.411 126.742 212.891 126.327 212.366C126.51 212.597 126.693 212.829 126.878 213.059ZM21.308 283.813C21.2939 283.89 21.2807 283.969 21.2667 284.046C21.3433 283.619 21.4219 283.192 21.5041 282.767L21.308 283.813ZM302.956 92.2073C303.077 92.3495 303.199 92.4929 303.321 92.6335C303.413 92.7392 303.507 92.8433 303.6 92.948C303.507 92.8429 303.413 92.7374 303.321 92.6313C303.199 92.4906 303.077 92.3496 302.956 92.2073ZM21.968 280.586C21.955 280.642 21.9427 280.699 21.9298 280.755C21.9977 280.458 22.0665 280.163 22.1384 279.868L21.968 280.586ZM230.989 140.124L230.987 140.164C230.991 140.106 230.996 140.049 231.001 139.991C230.997 140.035 230.993 140.08 230.989 140.124ZM51.509 259.565L52.4767 257.878C52.5875 258.037 52.7008 258.194 52.8122 258.352C52.7005 258.194 52.5866 258.036 52.4756 257.876C52.1557 258.439 51.8336 259.003 51.509 259.565ZM22.5018 278.446C22.4913 278.485 22.4819 278.524 22.4715 278.563C22.5447 278.288 22.6191 278.013 22.6955 277.74L22.5018 278.446ZM301.997 91.0358C302.036 91.0842 302.075 91.132 302.114 91.1802C302.075 91.1317 302.036 91.0832 301.998 91.0344C301.927 90.9452 301.856 90.8554 301.787 90.7656C301.857 90.8557 301.927 90.9464 301.997 91.0358ZM366.856 45.928C366.939 46.0725 367.022 46.217 367.104 46.3624C367.022 46.2172 366.94 46.0726 366.857 45.9283C366.788 45.8082 366.718 45.6877 366.649 45.5682C366.718 45.6874 366.787 45.8081 366.856 45.928ZM300.564 89.115C300.646 89.2321 300.73 89.3498 300.813 89.466C300.92 89.6142 301.028 89.7623 301.136 89.9091C301.028 89.762 300.919 89.6128 300.812 89.4643C300.729 89.3479 300.645 89.2305 300.563 89.1133L300.564 89.115ZM231.981 134.597C231.905 134.848 231.832 135.101 231.763 135.354C231.9 134.847 232.055 134.346 232.221 133.849L231.981 134.597ZM67.0549 245.199L67.0859 245.26C67.0565 245.203 67.0283 245.145 66.999 245.088C67.0179 245.125 67.0359 245.163 67.0549 245.199ZM365.588 43.8481C365.653 43.9472 365.715 44.047 365.779 44.1467C365.715 44.0469 365.653 43.9459 365.589 43.8467C365.578 43.8311 365.568 43.8157 365.557 43.8001C365.568 43.816 365.578 43.8321 365.588 43.8481ZM119.447 201.711C120.353 203.483 121.337 205.191 122.39 206.84L121.998 206.218C121.092 204.762 120.24 203.261 119.447 201.711ZM236.829 120.416C236.792 121.483 236.564 122.554 236.246 123.597C235.485 126.098 234.353 128.481 233.343 130.907L233.96 129.455C234.791 127.524 235.637 125.6 236.247 123.599C236.593 122.461 236.833 121.289 236.835 120.125L236.829 120.416ZM298.373 85.6839C298.293 85.5448 298.213 85.4051 298.135 85.2652L298.133 85.2635C298.212 85.4041 298.293 85.5442 298.373 85.6839ZM297.195 83.4998C297.285 83.6782 297.376 83.8563 297.468 84.0333C297.376 83.8562 297.285 83.6769 297.196 83.4985C297.172 83.4511 297.147 83.4037 297.124 83.3563C297.147 83.4041 297.171 83.4522 297.195 83.4998ZM236.789 119.255C236.81 119.448 236.824 119.641 236.83 119.835L236.815 119.545C236.809 119.449 236.799 119.351 236.789 119.255ZM295.508 79.7096C295.471 79.6135 295.432 79.5175 295.395 79.4209L295.394 79.4192C295.431 79.5163 295.471 79.613 295.508 79.7096ZM236.567 118.09C236.61 118.243 236.644 118.397 236.676 118.551C236.659 118.47 236.645 118.389 236.624 118.308L236.567 118.09ZM174.577 132.183C174.789 132.162 175.003 132.143 175.216 132.125C188.195 131.101 201.819 132.837 214.909 132.926L214.909 132.924C201.819 132.836 188.196 131.101 175.216 132.125C174.789 132.161 174.363 132.202 173.938 132.249L174.577 132.183ZM236.5 117.875L236.427 117.658C236.418 117.634 236.407 117.61 236.397 117.585C236.433 117.681 236.468 117.778 236.5 117.875ZM236.267 117.263C236.263 117.252 236.259 117.24 236.254 117.229L236.155 117.018C236.195 117.099 236.232 117.181 236.267 117.263ZM235.307 115.756C235.247 115.693 235.184 115.634 235.121 115.576L235.307 115.756ZM235.121 115.576L235.072 115.528C235.035 115.495 234.997 115.464 234.959 115.433C235.014 115.479 235.067 115.527 235.121 115.576ZM116.329 194.526L116.102 193.876L116.099 193.87C116.174 194.089 116.251 194.307 116.329 194.526ZM61.7861 228.591C61.8065 228.72 61.8297 228.85 61.8509 228.979C61.8268 228.832 61.8011 228.685 61.778 228.537L61.7861 228.591ZM130.999 180.371C131.002 180.403 131.004 180.435 131.006 180.467C131.001 180.395 130.996 180.323 130.991 180.25L130.999 180.371ZM130.931 179.279C130.947 179.602 130.967 179.926 130.991 180.25L130.931 179.279ZM130.953 174.998L130.945 175.142C130.953 175.014 130.962 174.886 130.97 174.759C130.965 174.839 130.958 174.918 130.953 174.998ZM61.13 218.098C61.1224 218.357 61.1167 218.617 61.1125 218.877L61.13 218.098C61.1375 217.838 61.1463 217.579 61.1572 217.32L61.13 218.098ZM61.5313 212.645C61.4094 213.682 61.3137 214.722 61.2435 215.761L61.3014 214.982C61.3847 213.943 61.4935 212.904 61.628 211.867L61.5313 212.645ZM64.7937 198.459C63.3835 202.544 62.3429 206.795 61.7332 211.089L61.8487 210.314C62.4703 206.284 63.4683 202.298 64.7937 198.459ZM142.877 148.286C142.593 148.605 142.313 148.929 142.037 149.256C141.484 149.909 140.947 150.577 140.428 151.259C138.337 153.967 136.532 156.802 135.072 159.766L135.391 159.133C136.792 156.399 138.486 153.774 140.428 151.261C140.947 150.578 141.484 149.91 142.036 149.257C142.451 148.767 142.875 148.284 143.308 147.81L142.877 148.286ZM165.178 134.035C165.993 133.79 166.816 133.568 167.643 133.365C168.263 133.213 168.887 133.072 169.513 132.944L168.887 133.075C168.471 133.166 168.055 133.262 167.642 133.363C166.815 133.566 165.992 133.79 165.178 134.035ZM160.381 135.762C161.164 135.432 161.957 135.123 162.757 134.836C163.356 134.62 163.96 134.415 164.569 134.223L163.962 134.419C163.558 134.552 163.155 134.69 162.756 134.834C161.956 135.122 161.164 135.432 160.381 135.762ZM148.411 142.973C148.082 143.243 147.756 143.517 147.433 143.795C147.111 144.074 146.792 144.357 146.477 144.644L146.953 144.217C147.112 144.076 147.272 143.934 147.433 143.795C147.916 143.378 148.409 142.97 148.908 142.572L148.411 142.973ZM157.486 137.09L156.917 137.379C156.825 137.427 156.732 137.475 156.64 137.524C156.921 137.377 157.203 137.232 157.486 137.09ZM151.989 140.305C152.517 139.948 153.052 139.601 153.594 139.265C154.315 138.818 155.049 138.388 155.793 137.978C155.049 138.388 154.315 138.816 153.594 139.264C153.233 139.488 152.874 139.717 152.519 139.951L151.989 140.305ZM91.5711 166.379C84.8573 169.727 78.8647 174.421 74.1168 180.713C70.4357 185.591 67.3837 191.301 65.1627 197.415C67.3837 191.302 70.4364 185.593 74.1171 180.715C79.0181 174.22 85.2451 169.427 92.2229 166.059L91.5711 166.379ZM103.894 161.857C104.132 161.797 104.371 161.738 104.609 161.68L103.894 161.857C103.656 161.918 103.418 161.979 103.181 162.042L103.894 161.857ZM99.6623 163.081C100.358 162.854 101.059 162.638 101.765 162.435L101.061 162.641C100.358 162.853 99.6603 163.077 98.9672 163.311L99.6623 163.081ZM93.5403 165.445C94.8658 164.846 96.2165 164.297 97.5886 163.796L96.9037 164.051C95.5391 164.568 94.1967 165.133 92.8799 165.748L93.5403 165.445ZM55.5047 174.957L54.8534 176.032C55.0876 175.637 55.3288 175.242 55.5742 174.846C55.5514 174.883 55.5274 174.92 55.5047 174.957ZM371.517 215.751L371.464 215.755C371.725 215.736 371.986 215.72 372.247 215.706C372.004 215.719 371.76 215.733 371.517 215.751ZM286.484 231.837L286.532 231.954C286.568 232.039 286.605 232.124 286.642 232.208C286.588 232.085 286.536 231.961 286.484 231.837ZM124.552 283.23L123.751 283.141C123.689 283.135 123.627 283.129 123.564 283.123C123.896 283.156 124.226 283.192 124.552 283.23Z" fill="#2CC931"/>
</g>
<defs>
<clipPath id="clip0_3332_8095">
<rect width="512" height="512" fill="white" transform="translate(1.07227 0.927734) rotate(0.0162851)"/>
</clipPath>
</defs>
</svg>
